# xmcd
#
# Track frame offsets: 
#        150
#        18858
#        46151
#        67051
#        79901
#        114008
#        137416
#        165618
#        182316
#
# Disc length: 2700 seconds
#
# Revision: 0
# Processed by: cddbd v1.5.2PL0 Copyright (c) Steve Scherf et al.
# Submitted via: ExactAudioCopy v0.95b3
#
DISCID=620a8a09
DTITLE=Robin Trower  - Fifth Flooor Studios, Cincinnati, Ohio - Novemb
DTITLE=er 24, 1974
DYEAR=1900
DGENRE=
TTITLE0=01 - Twice Removed From Yesterday
TTITLE1=02 - Bridge Of Sighs
TTITLE2=03 - Alethea
TTITLE3=04 - Lady Love
TTITLE4=05 - Daydream
TTITLE5=06 - Too Rolling Stoned
TTITLE6=07 - I Can't Wait Much Longer
TTITLE7=08 - Day Of The Eagle
TTITLE8=09 - Little Bit Of Sympathy
EXTD=
EXTT0=
EXTT1=
EXTT2=
EXTT3=
EXTT4=
EXTT5=
EXTT6=
EXTT7=
EXTT8=
PLAYORDER=
